# xmcd
#
# Track frame offsets:
#	150
#	18635
#	37097
#	53150
#	69485
#	85820
#	102152
#
# Disc length: 1582 seconds
#
# Revision: 2
# Processed by: cddbd v1.5.1PL0 Copyright (c) Steve Scherf et al.
# Submitted via: EasyCDDAExtractor 7.0.6.1
#
DISCID=57062c07
DTITLE=The Large Professor - I just wanna chill
DYEAR=1996
DGENRE=Rap
TTITLE0=I just wanna chill (clean)
TTITLE1=I just wanna chill (LP version)
TTITLE2=I just wanna chill (instrumental)
TTITLE3=Hard! (clean)
TTITLE4=Hard! (LP version)
TTITLE5=Hard! (instrumental)
TTITLE6=The mad scientist (Remix)
EXTD=
EXTT0=
EXTT1=
EXTT2=
EXTT3=
EXTT4=
EXTT5=
EXTT6=
PLAYORDER=
